<?xml version="1.0" encoding="utf-8"?>
<?xml-stylesheet type="text/xsl" href="rss1.xsl"?>
<rss version="2.0" xmlns:atom="http://www.w3.org/2005/Atom" xmlns:content="http://purl.org/rss/1.0/modules/content/" xmlns:dc="http://purl.org/dc/elements/1.1/" xmlns:media="http://search.yahoo.com/mrss/">
<channel>
 <title>Getty</title>
 <link>http://www.gettyimg.com/</link>
 <atom:link href="http://www.gettyimg.com/" rel="self" type="application/rss+xml" />

 
                <item>
                <title><![CDATA[【Apple Music】WEB-RiP - Trace Adkins, Luke Bryan &amp; Pitbull - Where the Country Girls At (1080p)]]></title>
                <link><![CDATA[https://sharemania.us/threads/trace-adkins-luke-bryan-pitbull-where-the-country-girls-at-1080p.250775/]]></link>
                <description><![CDATA[<article>
<blockquote class="messageText SelectQuoteContainer ugc baseHtml">
<img src="https://i.postimg.cc/59BvPWTX/Trace-Adkins-Luke-Bryan-Pitbull-Where-the-Country-Girls-At-mp4.jpg" class="bbCodeImage LbImage" alt="[​IMG]" data-url="https://i.postimg.cc/59BvPWTX/Trace-Adkins-Luke-Bryan-Pitbull-Where-the-Country-Girls-At-mp4.jpg" style=""><br>
<br>
<div class="bbCodeBlock bbCodeCode">
<div class="type">Code:</div>
<pre>General
Complete name                  : G:\Новая папка\Trace Adkins, Luke Bryan &amp; Pitbull - Where the Country Girls At.mp4
Format                         : MPEG-4
Format profile                 : Base Media
Codec ID                       : isom (isom/iso2/avc1/mp41)
File size                      : 361 MiB
Duration                       : 5 min 2 s
Overall bit rate               : 10.0 Mb/s
Frame rate                     : 24.000 FPS
Movie name                     : Where the Country Girls At
Performer                      : Trace Adkins, Luke Bryan &amp; Pitbull
Genre                          : Country
ContentType                    : Music Video
Recorded date                  : 2021-09-28 07:00:00 UTC
Writing application            : Lavf56.30.100
Copyright                      : ℗ 2021 Verge Records Nashville

Video
ID                             : 1
Format                         : AVC
Format/Info                    : Advanced Video Codec
Format profile                 : High@L4
Format settings                : CABAC / 4 Ref Frames
Format settings, CABAC         : Yes
Format settings, Reference fra : 4 frames
Format settings, Slice count   : 8 slices per frame
Codec ID                       : avc1
Codec ID/Info                  : Advanced Video Coding
Duration                       : 5 min 2 s
Bit rate                       : 9 742 kb/s
Width                          : 1 920 pixels
Height                         : 1 080 pixels
Display aspect ratio           : 16:9
Frame rate mode                : Constant
Frame rate                     : 24.000 FPS
Color space                    : YUV
Chroma subsampling             : 4:2:0
Bit depth                      : 8 bits
Scan type                      : Progressive
Bits/(Pixel*Frame)             : 0.196
Stream size                    : 351 MiB (97%)
Color range                    : Limited
Color primaries                : BT.709
Transfer characteristics       : BT.709
Matrix coefficients            : BT.709
Codec configuration box        : avcC

Audio
ID                             : 2
Format                         : AAC LC
Format/Info                    : Advanced Audio Codec Low Complexity
Codec ID                       : mp4a-40-2
Duration                       : 5 min 2 s
Duration_LastFrame             : -21 ms
Bit rate mode                  : Constant
Bit rate                       : 274 kb/s
Channel(s)                     : 2 channels
Channel layout                 : L R
Sampling rate                  : 48.0 kHz
Frame rate                     : 46.875 FPS (1024 SPF)
Compression mode               : Lossy
Stream size                    : 9.89 MiB (3%)
Default                        : Yes
Alternate group                : 1

</pre>
</div>
<div class="bbCodeBlock bbCodeVfcHH HiddenContent">
<div class="attribution type">Hidden Content:</div>
<blockquote>You must either reply or click 'Like' to see the hidden information contained here.</blockquote>
</div>
<div class="messageTextEndMarker">&nbsp;</div>
</blockquote>
</article>]]></description>
                <author><![CDATA[vitalya3]]></author>
                </item>

                
                <item>
                <title><![CDATA[【Singles (lossy)】Alanis Morissette - Last Christmas [EP] (2023) [Qobuz 320kbps] [MP3]]]></title>
                <link><![CDATA[https://sharemania.us/threads/alanis-morissette-last-christmas-ep-2023-qobuz-320kbps-mp3.250774/]]></link>
                <description><![CDATA[<article>
<blockquote class="messageText SelectQuoteContainer ugc baseHtml">
Release Date: 2023<br>
Source: <a href="https://www.qobuz.com/ie-en/album/last-christmas-alanis-morissette/n3tjfj05umcfc" target="_blank" class="externalLink" rel="nofollow">Qobuz</a><br>
Format: MP3<br>
<br>
Tracklist:<br>
<br>
01. Happy Xmas (War Is Over)<br>
02. Little Drummer Boy<br>
03. What Child Is This<br>
04. Last Christmas<br>
<br>
<div class="bbCodeBlock bbCodeVfcHH HiddenContent">
<div class="attribution type">Hidden Content:</div>
<blockquote>You must reply before you can see the hidden data contained here.</blockquote>
</div>
<div class="messageTextEndMarker">&nbsp;</div>
</blockquote>
</article>]]></description>
                <author><![CDATA[phechft]]></author>
                </item>

                
                <item>
                <title><![CDATA[【Singles (lossless)】Alanis Morissette - Last Christmas [EP] (2023) [Qobuz 24bit/48kHz] [FLAC]]]></title>
                <link><![CDATA[https://sharemania.us/threads/alanis-morissette-last-christmas-ep-2023-qobuz-24bit-48khz-flac.250773/]]></link>
                <description><![CDATA[<article>
<blockquote class="messageText SelectQuoteContainer ugc baseHtml">
Release Date: 2023<br>
Source: <a href="https://www.qobuz.com/ie-en/album/last-christmas-alanis-morissette/n3tjfj05umcfc" target="_blank" class="externalLink" rel="nofollow">Qobuz</a><br>
Format: 24bit/48kHzFLAC<br>
<br>
Tracklist:<br>
<br>
01. Happy Xmas (War Is Over)<br>
02. Little Drummer Boy<br>
03. What Child Is This<br>
04. Last Christmas<br>
<br>
<div class="bbCodeBlock bbCodeVfcHH HiddenContent">
<div class="attribution type">Hidden Content:</div>
<blockquote>You must reply before you can see the hidden data contained here.</blockquote>
</div>
<div class="messageTextEndMarker">&nbsp;</div>
</blockquote>
</article>]]></description>
                <author><![CDATA[phechft]]></author>
                </item>

                
                <item>
                <title><![CDATA[【Apple Music】WEB-RiP - Pitbull - Get Ready (feat. Blake Shelton) (1080p)]]></title>
                <link><![CDATA[https://sharemania.us/threads/pitbull-get-ready-feat-blake-shelton-1080p.250772/]]></link>
                <description><![CDATA[<article>
<blockquote class="messageText SelectQuoteContainer ugc baseHtml">
<img src="https://i.postimg.cc/Vv9x2hwq/Pitbull-Get-Ready-feat-Blake-Shelton-mp4.jpg" class="bbCodeImage LbImage" alt="[​IMG]" data-url="https://i.postimg.cc/Vv9x2hwq/Pitbull-Get-Ready-feat-Blake-Shelton-mp4.jpg" style=""><br>
<br>
<div class="bbCodeBlock bbCodeCode">
<div class="type">Code:</div>
<pre>General
Complete name                  : G:\Новая папка\Pitbull - Get Ready (feat. Blake Shelton).mp4
Format                         : MPEG-4
Format profile                 : Base Media
Codec ID                       : isom (isom/iso2/avc1/mp41)
File size                      : 264 MiB
Duration                       : 3 min 46 s
Overall bit rate               : 9 809 kb/s
Frame rate                     : 23.976 FPS
Movie name                     : Get Ready (feat. Blake Shelton)
Performer                      : Pitbull
Genre                          : Pop
ContentType                    : Music Video
Recorded date                  : 2020-02-10 08:00:00 UTC
Writing application            : Lavf56.30.100
Copyright                      : ℗ 2020 Mr. 305 Records

Video
ID                             : 1
Format                         : AVC
Format/Info                    : Advanced Video Codec
Format profile                 : High@L4
Format settings                : CABAC / 4 Ref Frames
Format settings, CABAC         : Yes
Format settings, Reference fra : 4 frames
Format settings, Slice count   : 8 slices per frame
Codec ID                       : avc1
Codec ID/Info                  : Advanced Video Coding
Duration                       : 3 min 46 s
Bit rate                       : 9 550 kb/s
Width                          : 1 920 pixels
Height                         : 1 080 pixels
Display aspect ratio           : 16:9
Frame rate mode                : Constant
Frame rate                     : 23.976 (24000/1001) FPS
Color space                    : YUV
Chroma subsampling             : 4:2:0
Bit depth                      : 8 bits
Scan type                      : Progressive
Bits/(Pixel*Frame)             : 0.192
Stream size                    : 257 MiB (97%)
Color range                    : Limited
Color primaries                : BT.709
Transfer characteristics       : BT.709
Matrix coefficients            : BT.709
Codec configuration box        : avcC

Audio
ID                             : 2
Format                         : AAC LC
Format/Info                    : Advanced Audio Codec Low Complexity
Codec ID                       : mp4a-40-2
Duration                       : 3 min 46 s
Duration_LastFrame             : -1 ms
Bit rate mode                  : Constant
Bit rate                       : 256 kb/s
Channel(s)                     : 2 channels
Channel layout                 : L R
Sampling rate                  : 48.0 kHz
Frame rate                     : 46.875 FPS (1024 SPF)
Compression mode               : Lossy
Stream size                    : 6.89 MiB (3%)
Default                        : Yes
Alternate group                : 1

</pre>
</div>
<div class="bbCodeBlock bbCodeVfcHH HiddenContent">
<div class="attribution type">Hidden Content:</div>
<blockquote>You must either reply or click 'Like' to see the hidden information contained here.</blockquote>
</div>
<div class="messageTextEndMarker">&nbsp;</div>
</blockquote>
</article>]]></description>
                <author><![CDATA[vitalya3]]></author>
                </item>

                </channel></rss>